<svg width="70" height="52" viewBox="0 0 70 52" fill="none" xmlns="http://www.w3.org/2000/svg">
<path d="M34.9134 23.4139C36.4791 24.0441 38.0296 24.7223 39.5588 25.4389C42.5098 26.8202 44.0986 29.214 44.5924 32.3878C44.6327 32.6414 44.65 32.9027 44.3772 33.1486C43.9276 33.0679 43.6844 32.9086 42.919 33.1813C42.1536 33.454 41.3379 34.0497 41.1899 35.0506C40.9978 36.3378 41.3302 37.5194 41.9373 38.6413C42.0718 38.8911 42.2139 39.1351 42.3542 39.3848C40.8518 41.2138 38.9056 42.0092 36.6252 42.0803C35.7625 42.1072 34.8903 42.0303 34.0392 42.1302C32.729 42.2839 31.6934 42.9717 30.7482 43.8997C29.3112 45.3098 27.8222 46.6912 25.6839 46.9736C24.8655 46.8852 24.049 47.0139 23.2171 46.8698C18.2643 46.0072 14.9502 41.5539 15.8128 36.6068C16.3104 33.7538 17.8013 31.2294 19.0039 28.6242C19.6783 27.1622 20.9328 26.1286 21.9203 24.8971C25.675 21.9872 30.5257 21.6478 34.9134 23.4139Z" fill="#FDFDFD"/>
<path d="M21.9185 24.8951C20.931 26.1266 19.9893 27.0598 19.0022 28.6223C17.2089 31.4604 15.7515 33.2481 15.811 36.6048C15.8987 41.5462 18.2625 46.0072 23.2153 46.8679C24.0453 47.012 24.8618 46.8833 25.6822 46.9716C24.516 47.5768 23.2903 47.4231 22.0703 47.2252C17.2693 46.6233 15.103 42.0524 14.7813 36.9987C14.4941 32.4874 17.1309 29.5637 19.761 26.5493C20.3585 25.8634 20.9771 25.1545 21.9185 24.8951Z" fill="#646F8A"/>
<path d="M9.65538 10.1249C11.2615 8.90301 12.908 9.26996 14.5141 10.0769C17.2326 11.4428 18.8195 14.6897 18.2969 17.6829C17.955 19.6329 16.7119 20.9163 14.9079 21.1833C14.7581 21.141 14.6082 21.0776 14.4565 21.0623C10.8273 20.7068 8.03005 16.8587 8.3336 13.3487C8.43926 12.1172 9.10784 11.1547 9.65538 10.1249Z" fill="#FDFDFD"/>
<path d="M9.65602 10.125C9.10848 11.1548 8.4399 12.1154 8.33423 13.3488C8.03068 16.8569 10.8279 20.705 14.4571 21.0624C14.6108 21.0777 14.7587 21.1431 14.9086 21.1834C14.2746 21.7463 13.5195 21.5158 12.8529 21.3871C9.09311 20.6512 6.43417 16.1729 7.61378 12.5496C7.95191 11.5044 8.40532 10.4516 9.65602 10.125Z" fill="#646F8A"/>
<path d="M27.8864 2.81674C29.4983 2.04057 30.9238 2.50742 32.2475 3.50452C35.1774 5.71006 35.8555 10.3997 33.65 13.2738C32.9507 14.1845 32.0938 14.878 30.847 14.8377C27.556 14.0135 25.7731 11.783 25.5541 8.37668C25.41 6.10775 26.2438 4.30759 27.8864 2.81674Z" fill="#FDFDFD"/>
<path d="M27.8867 2.81677C26.2441 4.3057 25.4084 6.10778 25.5544 8.37672C25.7734 11.7849 27.5563 14.0135 30.8473 14.8377C29.8109 15.0332 29.5176 14.9943 28.6975 14.8147C26.1266 14.2515 24.9761 11.9674 24.5477 9.50446C24.223 7.63322 24.492 5.79655 25.7331 4.23846C26.2921 3.54106 26.8935 2.87249 27.8867 2.81677Z" fill="#646F8A"/>
<path d="M3.32586 27.2352C3.95025 26.5935 4.73026 26.5609 5.55061 26.6473C7.9329 26.8971 9.91941 29.2602 9.67926 31.5694C9.54478 32.8643 8.70522 33.7058 7.40841 33.848C3.70626 33.2159 2.22117 30.8067 3.32586 27.2352Z" fill="#FDFDFD"/>
<path d="M3.32556 27.2351C2.22087 30.8085 3.70596 33.2158 7.40619 33.8498C7.38121 34.0438 7.24673 34.0995 7.07766 34.1303C4.37838 34.5991 1.56575 32.0054 1.80974 29.2735C1.90772 28.1688 2.42644 27.4753 3.32556 27.2351Z" fill="#646F8A"/>
<path d="M43.521 11.7233C44.7698 11.0375 45.8572 11.2065 46.8889 12.2459C48.689 14.0614 48.3509 17.6829 46.2472 19.1315C45.9513 19.3351 45.6247 19.4523 45.2597 19.4466C43.2789 18.9297 42.3606 17.8846 42.1339 16.0038C41.9322 14.3496 42.5162 12.974 43.521 11.7233Z" fill="#FDFDFD"/>
<path d="M43.5209 11.7234C42.5161 12.9741 41.9321 14.3497 42.1319 16.0057C42.3586 17.8866 43.2769 18.9298 45.2577 19.4485C44.6506 20.0249 43.9628 19.779 43.3288 19.5715C41.9782 19.1296 40.9945 17.4351 41.0406 15.7348C41.0829 14.2863 41.8072 12.2671 43.5209 11.7234Z" fill="#646F8A"/>
<path d="M12.9563 38.6451C12.874 36.1361 12.9391 34.8404 13.8579 32.5044C15.0015 29.597 16.3746 27.7015 18.5527 25.4618C23.0774 20.8093 28.591 19.5234 34.7234 21.6309C37.3344 22.5281 39.9914 23.4714 42.2449 25.1698C44.7771 27.0775 46.0662 29.6673 46.1757 32.8181C46.2026 33.5577 46.4581 34.038 46.9749 34.5414C48.5273 36.0514 49.3342 37.8497 48.8462 40.0764C48.5061 41.6325 47.167 42.2596 45.7896 41.9783C43.1034 41.4299 41.9721 41.9668 41.5072 42.2723C39.4131 43.6498 37.0827 44.0782 34.6389 43.938C33.4862 43.8707 32.6428 44.2473 31.8551 45.0676C30.053 46.9466 27.9685 48.3471 25.325 48.8255C21.0599 49.5997 16.5412 47.6644 14.2416 43.4365C13.3159 41.7347 13.0198 40.5814 12.9563 38.6451ZM25.6823 46.9715C27.8187 46.6891 29.3095 45.3078 30.7466 43.8976C31.6918 42.9697 32.7273 42.2819 34.0376 42.1282C34.8906 42.0283 35.7628 42.1051 36.6235 42.0782C38.904 42.0072 40.8501 41.2118 42.3525 39.3828C42.2123 39.135 42.0701 38.889 41.9356 38.6393C41.3285 37.5173 40.9962 36.3358 41.1883 35.0486C41.3381 34.0476 41.9725 33.1789 43.1033 33.0741C43.6328 33.025 43.926 33.0678 44.3755 33.1466C44.6484 32.9007 44.6291 32.6394 44.5907 32.3858C44.097 29.2139 42.5062 26.8182 39.5572 25.4368C38.0279 24.7202 36.4794 24.042 34.9117 23.4119C30.5113 21.6426 25.6457 22.0017 21.9148 24.8931C20.9734 25.1525 19.7592 26.5473 19.7592 26.5473C19.7592 26.5473 14.4936 32.4853 14.7795 36.9967C15.0897 41.8912 17.2129 46.5338 22.0685 47.2232C23.4692 47.4221 24.5142 47.5767 25.6823 46.9715Z" fill="#08090D"/>
<path d="M59.0787 51.2636C58.4927 51.3808 57.9125 51.0983 57.3823 50.7333C56.1566 49.8899 54.975 49.9072 53.7262 50.7179C52.3084 51.6382 50.8425 51.4615 49.4842 50.5912C48.2047 49.7708 47.6245 48.5259 47.6918 46.9985C47.7244 46.2377 48.0049 45.5615 48.5102 45.0043C48.9828 44.4856 49.4823 43.9861 50.0145 43.5288C50.9367 42.7335 51.5265 41.8612 51.6821 40.5529C52.0356 37.5808 54.7598 36.0784 57.292 37.3445C58.633 38.015 59.3016 39.2157 59.4245 40.6605C59.5014 41.5596 59.8299 42.2397 60.4812 42.8257C61.0518 43.3386 61.5974 43.8804 62.1276 44.4337C63.3111 45.669 63.753 47.1023 63.0978 48.7353C62.4273 50.401 61.021 51.2751 59.0787 51.2636Z" fill="#08090D"/>
<path d="M13.8059 23.0508C10.0634 23.0546 6.34973 19.6675 5.83101 15.8732C5.62736 14.3785 5.66002 12.9299 6.2383 11.5447C7.63309 8.20374 11.4678 6.79935 14.8318 8.35744C18.4687 10.0404 20.5704 14.0538 19.8827 17.9999C19.3543 21.0181 16.9144 23.0469 13.8059 23.0508ZM14.9087 21.1834C16.7127 20.9163 17.9557 19.6329 18.2977 17.6829C18.8202 14.6897 17.2333 11.4429 14.5148 10.0769C12.9087 9.27001 11.2622 8.90306 9.65612 10.1249C8.40542 10.4496 7.95201 11.5044 7.61388 12.5476C6.43427 16.1709 9.0932 20.6493 12.853 21.3851C13.5196 21.5157 14.2747 21.7463 14.9087 21.1834Z" fill="#08090D"/>
<path d="M36.5779 8.50539C36.5798 12.5284 34.8008 15.3948 32.1649 16.3035C29.0526 17.3775 25.5522 15.8271 23.9153 12.6014C22.5666 9.94244 22.3534 7.21434 23.6905 4.48432C25.7039 0.369113 30.5665 -0.449317 33.871 2.74564C35.6942 4.50929 36.4857 6.70715 36.5779 8.50539ZM27.8864 2.81672C26.8912 2.87051 26.2918 3.53909 25.7328 4.23841C24.4917 5.7965 24.2227 7.63124 24.5474 9.50441C24.9758 11.9674 26.0125 13.7562 28.4812 14.6534C29.1594 14.8993 30.1904 15.0332 30.847 14.8377C31.5036 14.6421 32.9526 14.1844 33.6519 13.2738C35.8556 10.3997 35.1774 5.71004 32.2495 3.50451C30.9238 2.50933 29.5002 2.04056 27.8864 2.81672Z" fill="#08090D"/>
<path d="M62.0836 39.2195C62.1624 36.3781 64.0048 33.9266 66.3295 33.162C68.487 32.4512 70.3006 33.8978 69.9586 36.1399C69.6089 38.4395 68.4466 40.2589 66.3986 41.4424C65.463 41.9822 64.4582 42.426 63.4169 41.7978C62.3065 41.1292 62.0778 39.9976 62.0836 39.2195Z" fill="#08090D"/>
<path d="M54.2753 28.5032C54.2753 29.8753 54.1063 30.8816 53.2052 31.8499C52.2696 32.8547 51.0227 32.9469 49.9603 32.0824C47.8508 30.3629 47.0324 26.4283 48.212 23.998C49.1015 22.1671 51.1784 22.2881 52.2081 23.3159C53.6413 24.7472 54.2753 26.8073 54.2753 28.5032Z" fill="#08090D"/>
<path d="M60.6101 22.5819C61.7263 22.5762 62.514 23.1141 62.9232 24.215C63.7974 26.5627 63.4727 28.7989 62.1566 30.895C61.4785 31.9747 60.5505 32.8162 59.1846 32.6164C57.7648 32.4108 57.2403 31.2254 57.0002 30.0055C56.5448 27.7 57.027 25.556 58.4929 23.6982C59.0328 23.0123 59.7187 22.4551 60.6101 22.5819Z" fill="#08090D"/>
<path d="M6.40717 35.8132C2.70118 35.7959 -0.353525 32.2052 0.265101 28.5953C0.578256 26.7778 2.29773 25.212 4.38799 25.0142C8.51088 24.6242 11.9883 28.4762 11.2371 32.1514C10.7875 34.3435 8.87975 35.8247 6.40717 35.8132ZM7.40619 33.8478C8.70492 33.7037 9.54257 32.8623 9.67897 31.5693C9.91912 29.26 7.9326 26.895 5.55032 26.6472C4.72997 26.5607 3.94996 26.5934 3.32557 27.2351C2.42453 27.4752 1.90773 28.1688 1.80974 29.2734C1.56383 32.0054 4.37839 34.599 7.07767 34.1302C7.24673 34.0995 7.38122 34.0419 7.40619 33.8478Z" fill="#08090D"/>
<path d="M49.638 15.2853C49.5919 17.4121 48.8676 19.1892 47.0943 20.4956C45.0617 21.9922 42.2279 21.6195 40.6833 19.5965C38.7736 17.0951 39.1117 13.1259 41.4498 11.0221C42.9061 9.71189 44.639 9.31613 46.4392 10.0596C48.4891 10.9069 49.4382 12.6398 49.6361 14.8069C49.6495 14.9644 49.638 15.1258 49.638 15.2853ZM43.5209 11.7234C41.8072 12.2671 41.081 14.2882 41.0425 15.7348C40.9964 17.4332 41.9801 19.1277 43.3307 19.5715C43.9628 19.779 44.6525 20.0249 45.2596 19.4485C45.6246 19.4543 45.9512 19.3371 46.2471 19.1334C48.3508 17.6849 48.6889 14.0634 46.8887 12.2479C45.8571 11.2066 44.7697 11.0375 43.5209 11.7234Z" fill="#08090D"/>
</svg>
