<svg width="210" height="222" viewBox="0 0 210 222" fill="none" xmlns="http://www.w3.org/2000/svg">
<path d="M35.671 192.031H34.671V193.031H35.671V192.031ZM37.975 192.031V193.031H38.975V192.031H37.975ZM37.975 178.063V177.063H36.975V178.063H37.975ZM38.023 178.063L38.9481 177.683L38.6934 177.063H38.023V178.063ZM43.759 192.031L42.834 192.411L43.0886 193.031H43.759V192.031ZM45.295 192.031V193.031H45.9654L46.2201 192.411L45.295 192.031ZM51.031 178.063V177.063H50.3606L50.106 177.683L51.031 178.063ZM51.079 178.063H52.079V177.063H51.079V178.063ZM51.079 192.031H50.079V193.031H51.079V192.031ZM53.383 192.031V193.031H54.383V192.031H53.383ZM53.383 175.039H54.383V174.039H53.383V175.039ZM49.951 175.039V174.039H49.284L49.0277 174.655L49.951 175.039ZM44.599 187.903V188.903H45.2661L45.5223 188.287L44.599 187.903ZM44.503 187.903L43.581 188.29L43.8383 188.903H44.503V187.903ZM39.103 175.039L40.0251 174.652L39.7678 174.039H39.103V175.039ZM35.671 175.039V174.039H34.671V175.039H35.671ZM35.671 193.031H37.975V191.031H35.671V193.031ZM38.975 192.031V178.063H36.975V192.031H38.975ZM37.975 179.063H38.023V177.063H37.975V179.063ZM37.098 178.443L42.834 192.411L44.6841 191.651L38.9481 177.683L37.098 178.443ZM43.759 193.031H45.295V191.031H43.759V193.031ZM46.2201 192.411L51.9561 178.443L50.106 177.683L44.37 191.651L46.2201 192.411ZM51.031 179.063H51.079V177.063H51.031V179.063ZM50.079 178.063V192.031H52.079V178.063H50.079ZM51.079 193.031H53.383V191.031H51.079V193.031ZM54.383 192.031V175.039H52.383V192.031H54.383ZM53.383 174.039H49.951V176.039H53.383V174.039ZM49.0277 174.655L43.6757 187.519L45.5223 188.287L50.8743 175.423L49.0277 174.655ZM44.599 186.903H44.503V188.903H44.599V186.903ZM45.4251 187.516L40.0251 174.652L38.181 175.426L43.581 188.29L45.4251 187.516ZM39.103 174.039H35.671V176.039H39.103V174.039ZM34.671 175.039V192.031H36.671V175.039H34.671ZM64.789 192.031L63.8739 191.627L63.2556 193.031H64.789V192.031ZM67.477 192.031V193.031H68.1541L68.4055 192.402L67.477 192.031ZM69.157 187.831V186.831H68.48L68.2286 187.459L69.157 187.831ZM77.245 187.831L78.1717 187.455L77.9185 186.831H77.245V187.831ZM78.949 192.031L78.0224 192.407L78.2756 193.031H78.949V192.031ZM81.637 192.031V193.031H83.1527L82.5564 191.637L81.637 192.031ZM74.365 175.039L75.2844 174.645L75.0248 174.039H74.365V175.039ZM72.277 175.039V174.039H71.6249L71.3619 174.635L72.277 175.039ZM69.973 185.815L69.0485 185.433L68.4791 186.815H69.973V185.815ZM73.189 178.015V177.015H72.5197L72.2645 177.633L73.189 178.015ZM73.237 178.015L74.1635 177.638L73.9102 177.015H73.237V178.015ZM76.405 185.815V186.815H77.8905L77.3315 185.438L76.405 185.815ZM64.789 193.031H67.477V191.031H64.789V193.031ZM68.4055 192.402L70.0855 188.202L68.2286 187.459L66.5486 191.659L68.4055 192.402ZM69.157 188.831H77.245V186.831H69.157V188.831ZM76.3184 188.207L78.0224 192.407L79.8757 191.655L78.1717 187.455L76.3184 188.207ZM78.949 193.031H81.637V191.031H78.949V193.031ZM82.5564 191.637L75.2844 174.645L73.4457 175.432L80.7177 192.424L82.5564 191.637ZM74.365 174.039H72.277V176.039H74.365V174.039ZM71.3619 174.635L63.8739 191.627L65.7041 192.434L73.1921 175.442L71.3619 174.635ZM70.8975 186.196L74.1135 178.396L72.2645 177.633L69.0485 185.433L70.8975 186.196ZM73.189 179.015H73.237V177.015H73.189V179.015ZM72.3105 178.391L75.4785 186.191L77.3315 185.438L74.1635 177.638L72.3105 178.391ZM76.405 184.815H69.973V186.815H76.405V184.815ZM91.8155 190.111L91.1631 189.353L90.4699 189.949L91.0026 190.693L91.8155 190.111ZM101.103 178.255L100.265 178.799L100.906 179.787L101.777 178.994L101.103 178.255ZM102.975 176.551L103.649 177.29L104.349 176.653L103.75 175.919L102.975 176.551ZM93.7115 188.479L94.5484 187.931L93.924 186.976L93.0591 187.721L93.7115 188.479ZM91.0026 190.693C92.4093 192.657 94.8684 193.463 97.2395 193.463V191.463C95.2425 191.463 93.5256 190.781 92.6284 189.528L91.0026 190.693ZM97.2395 193.463C99.0655 193.463 100.783 192.912 102.061 191.831C103.356 190.736 104.143 189.142 104.143 187.207H102.143C102.143 188.559 101.611 189.593 100.77 190.304C99.9122 191.029 98.6774 191.463 97.2395 191.463V193.463ZM104.143 187.207C104.143 185.409 103.511 184.14 102.493 183.25C101.535 182.412 100.304 181.975 99.2561 181.645C98.1205 181.287 97.2395 181.058 96.5809 180.673C96.2781 180.496 96.0858 180.318 95.9662 180.134C95.8529 179.959 95.7675 179.723 95.7675 179.359H93.7675C93.7675 180.068 93.9437 180.691 94.2886 181.223C94.627 181.744 95.0891 182.118 95.5716 182.4C96.4835 182.933 97.6964 183.25 98.6549 183.552C99.701 183.882 100.564 184.22 101.176 184.755C101.729 185.239 102.143 185.944 102.143 187.207H104.143ZM95.7675 179.359C95.7675 179.057 95.8801 178.674 96.1807 178.37C96.4658 178.081 97.017 177.767 98.0795 177.767V175.767C96.5979 175.767 95.4931 176.22 94.7582 176.964C94.0388 177.692 93.7675 178.604 93.7675 179.359H95.7675ZM98.0795 177.767C99.1102 177.767 99.8983 178.234 100.265 178.799L101.942 177.71C101.157 176.499 99.6887 175.767 98.0795 175.767V177.767ZM101.777 178.994L103.649 177.29L102.302 175.811L100.43 177.515L101.777 178.994ZM103.75 175.919C102.2 174.017 100.051 173.607 98.0795 173.607V175.607C99.8035 175.607 101.207 175.964 102.2 177.183L103.75 175.919ZM98.0795 173.607C93.4381 173.607 91.3195 176.823 91.3195 179.359H93.3195C93.3195 177.91 94.5608 175.607 98.0795 175.607V173.607ZM91.3195 179.359C91.3195 181.254 91.9314 182.613 92.9302 183.587C93.8857 184.518 95.117 185.016 96.186 185.379C97.3463 185.773 98.2242 185.991 98.9095 186.363C99.2226 186.533 99.4105 186.696 99.5215 186.851C99.6212 186.991 99.6955 187.175 99.6955 187.471H101.695C101.695 186.788 101.508 186.192 101.15 185.69C100.803 185.203 100.336 184.862 99.8639 184.605C98.9788 184.125 97.7627 183.802 96.829 183.485C95.8039 183.137 94.9412 182.754 94.3262 182.154C93.7545 181.597 93.3195 180.775 93.3195 179.359H91.3195ZM99.6955 187.471C99.6955 188.027 99.4328 188.455 98.9854 188.778C98.5147 189.117 97.8781 189.303 97.3115 189.303V191.303C98.2569 191.303 99.3122 191.008 100.156 190.4C101.022 189.774 101.695 188.786 101.695 187.471H99.6955ZM97.3115 189.303C96.2024 189.303 95.1405 188.837 94.5484 187.931L92.8745 189.026C93.9144 190.616 95.6845 191.303 97.3115 191.303V189.303ZM93.0591 187.721L91.1631 189.353L92.4678 190.869L94.3638 189.237L93.0591 187.721ZM115.903 192.031H114.903V193.031H115.903V192.031ZM118.207 192.031V193.031H119.207V192.031H118.207ZM118.207 183.535V182.535H117.207V183.535H118.207ZM118.399 183.535L119.131 182.853L118.834 182.535H118.399V183.535ZM126.319 192.031L125.588 192.713L125.884 193.031H126.319V192.031ZM129.679 192.031V193.031H132.022L130.402 191.339L129.679 192.031ZM120.919 182.887L120.228 182.164L119.505 182.856L120.197 183.578L120.919 182.887ZM129.127 175.039L129.818 175.761L131.62 174.039H129.127V175.039ZM125.911 175.039V174.039H125.504L125.212 174.324L125.911 175.039ZM118.399 182.383V183.383H118.807L119.098 183.098L118.399 182.383ZM118.207 182.383H117.207V183.383H118.207V182.383ZM118.207 175.039H119.207V174.039H118.207V175.039ZM115.903 175.039V174.039H114.903V175.039H115.903ZM115.903 193.031H118.207V191.031H115.903V193.031ZM119.207 192.031V183.535H117.207V192.031H119.207ZM118.207 184.535H118.399V182.535H118.207V184.535ZM117.668 184.217L125.588 192.713L127.051 191.349L119.131 182.853L117.668 184.217ZM126.319 193.031H129.679V191.031H126.319V193.031ZM130.402 191.339L121.642 182.195L120.197 183.578L128.957 192.722L130.402 191.339ZM121.61 183.609L129.818 175.761L128.436 174.316L120.228 182.164L121.61 183.609ZM129.127 174.039H125.911V176.039H129.127V174.039ZM125.212 174.324L117.7 181.668L119.098 183.098L126.61 175.754L125.212 174.324ZM118.399 181.383H118.207V183.383H118.399V181.383ZM119.207 182.383V175.039H117.207V182.383H119.207ZM118.207 174.039H115.903V176.039H118.207V174.039ZM114.903 175.039V192.031H116.903V175.039H114.903ZM148.626 193.463C154.383 193.463 158.482 189.105 158.482 183.535H156.482C156.482 188.044 153.236 191.463 148.626 191.463V193.463ZM158.482 183.535C158.482 177.964 154.383 173.607 148.626 173.607V175.607C153.236 175.607 156.482 179.025 156.482 183.535H158.482ZM148.626 173.607C142.868 173.607 138.77 177.964 138.77 183.535H140.77C140.77 179.025 144.015 175.607 148.626 175.607V173.607ZM138.77 183.535C138.77 189.105 142.868 193.463 148.626 193.463V191.463C144.015 191.463 140.77 188.044 140.77 183.535H138.77ZM148.626 189.303C145.377 189.303 143.218 186.794 143.218 183.535H141.218C141.218 187.716 144.099 191.303 148.626 191.303V189.303ZM143.218 183.535C143.218 180.276 145.377 177.767 148.626 177.767V175.767C144.099 175.767 141.218 179.354 141.218 183.535H143.218ZM148.626 177.767C151.875 177.767 154.034 180.276 154.034 183.535H156.034C156.034 179.354 153.153 175.767 148.626 175.767V177.767ZM154.034 183.535C154.034 186.794 151.875 189.303 148.626 189.303V191.303C153.153 191.303 156.034 187.716 156.034 183.535H154.034Z" fill="white"/>
<path d="M85.7691 216.143L85.3115 215.941L85.0023 216.643H85.7691V216.143ZM87.1131 216.143V216.643H87.4516L87.5773 216.329L87.1131 216.143ZM87.9531 214.043V213.543H87.6146L87.4888 213.857L87.9531 214.043ZM91.9971 214.043L92.4604 213.855L92.3338 213.543H91.9971V214.043ZM92.8491 216.143L92.3858 216.331L92.5124 216.643H92.8491V216.143ZM94.1931 216.143V216.643H94.9509L94.6528 215.946L94.1931 216.143ZM90.5571 207.647L91.0168 207.45L90.887 207.147H90.5571V207.647ZM89.5131 207.647V207.147H89.187L89.0555 207.445L89.5131 207.647ZM88.3611 213.035L87.8988 212.844L87.6141 213.535H88.3611V213.035ZM89.9691 209.135V208.635H89.6344L89.5068 208.944L89.9691 209.135ZM89.9931 209.135L90.4563 208.947L90.3297 208.635H89.9931V209.135ZM91.5771 213.035V213.535H92.3198L92.0403 212.847L91.5771 213.035ZM85.7691 216.643H87.1131V215.643H85.7691V216.643ZM87.5773 216.329L88.4173 214.229L87.4888 213.857L86.6488 215.957L87.5773 216.329ZM87.9531 214.543H91.9971V213.543H87.9531V214.543ZM91.5338 214.231L92.3858 216.331L93.3124 215.955L92.4604 213.855L91.5338 214.231ZM92.8491 216.643H94.1931V215.643H92.8491V216.643ZM94.6528 215.946L91.0168 207.45L90.0974 207.844L93.7334 216.34L94.6528 215.946ZM90.5571 207.147H89.5131V208.147H90.5571V207.147ZM89.0555 207.445L85.3115 215.941L86.2266 216.345L89.9706 207.849L89.0555 207.445ZM88.8233 213.225L90.4313 209.325L89.5068 208.944L87.8988 212.844L88.8233 213.225ZM89.9691 209.635H89.9931V208.635H89.9691V209.635ZM89.5298 209.323L91.1138 213.223L92.0403 212.847L90.4563 208.947L89.5298 209.323ZM91.5771 212.535H88.3611V213.535H91.5771V212.535ZM99.9783 216.143H99.4783V216.643H99.9783V216.143ZM101.13 216.143V216.643H101.63V216.143H101.13ZM101.13 212.399V211.899H100.63V212.399H101.13ZM99.9783 207.647V207.147H99.4783V207.647H99.9783ZM101.13 208.655V208.155H100.63V208.655H101.13ZM101.13 211.391H100.63V211.891H101.13V211.391ZM99.9783 216.643H101.13V215.643H99.9783V216.643ZM101.63 216.143V212.399H100.63V216.143H101.63ZM101.13 212.899H102.966V211.899H101.13V212.899ZM102.966 212.899C104.156 212.899 104.989 212.537 105.516 211.944C106.033 211.363 106.19 210.634 106.19 210.023H105.19C105.19 210.48 105.071 210.939 104.769 211.279C104.478 211.607 103.948 211.899 102.966 211.899V212.899ZM106.19 210.023C106.19 209.412 106.033 208.683 105.516 208.102C104.989 207.509 104.156 207.147 102.966 207.147V208.147C103.948 208.147 104.478 208.439 104.769 208.767C105.071 209.107 105.19 209.566 105.19 210.023H106.19ZM102.966 207.147H99.9783V208.147H102.966V207.147ZM99.4783 207.647V216.143H100.478V207.647H99.4783ZM101.13 209.155H102.642V208.155H101.13V209.155ZM102.642 209.155C103.079 209.155 103.423 209.21 103.646 209.34C103.748 209.399 103.82 209.471 103.871 209.563C103.923 209.658 103.966 209.801 103.966 210.023H104.966C104.966 209.668 104.896 209.353 104.748 209.083C104.599 208.811 104.387 208.613 104.147 208.474C103.686 208.207 103.118 208.155 102.642 208.155V209.155ZM103.966 210.023C103.966 210.244 103.923 210.388 103.871 210.483C103.82 210.575 103.748 210.647 103.646 210.706C103.423 210.835 103.079 210.891 102.642 210.891V211.891C103.118 211.891 103.686 211.838 104.147 211.572C104.387 211.433 104.599 211.235 104.748 210.963C104.896 210.693 104.966 210.377 104.966 210.023H103.966ZM102.642 210.891H101.13V211.891H102.642V210.891ZM101.63 211.391V208.655H100.63V211.391H101.63ZM111.772 216.143H111.272V216.643H111.772V216.143ZM112.924 216.143V216.643H113.424V216.143H112.924ZM112.924 212.399V211.899H112.424V212.399H112.924ZM111.772 207.647V207.147H111.272V207.647H111.772ZM112.924 208.655V208.155H112.424V208.655H112.924ZM112.924 211.391H112.424V211.891H112.924V211.391ZM111.772 216.643H112.924V215.643H111.772V216.643ZM113.424 216.143V212.399H112.424V216.143H113.424ZM112.924 212.899H114.76V211.899H112.924V212.899ZM114.76 212.899C115.95 212.899 116.782 212.537 117.31 211.944C117.826 211.363 117.984 210.634 117.984 210.023H116.984C116.984 210.48 116.865 210.939 116.562 211.279C116.271 211.607 115.741 211.899 114.76 211.899V212.899ZM117.984 210.023C117.984 209.412 117.826 208.683 117.31 208.102C116.782 207.509 115.95 207.147 114.76 207.147V208.147C115.741 208.147 116.271 208.439 116.562 208.767C116.865 209.107 116.984 209.566 116.984 210.023H117.984ZM114.76 207.147H111.772V208.147H114.76V207.147ZM111.272 207.647V216.143H112.272V207.647H111.272ZM112.924 209.155H114.436V208.155H112.924V209.155ZM114.436 209.155C114.872 209.155 115.216 209.21 115.439 209.34C115.541 209.399 115.614 209.471 115.664 209.563C115.716 209.658 115.76 209.801 115.76 210.023H116.76C116.76 209.668 116.689 209.353 116.541 209.083C116.393 208.811 116.18 208.613 115.94 208.474C115.479 208.207 114.911 208.155 114.436 208.155V209.155ZM115.76 210.023C115.76 210.244 115.716 210.388 115.664 210.483C115.614 210.575 115.541 210.647 115.439 210.706C115.216 210.835 114.872 210.891 114.436 210.891V211.891C114.911 211.891 115.479 211.838 115.94 211.572C116.18 211.433 116.393 211.235 116.541 210.963C116.689 210.693 116.76 210.377 116.76 210.023H115.76ZM114.436 210.891H112.924V211.891H114.436V210.891ZM113.424 211.391V208.655H112.424V211.391H113.424Z" fill="white"/>
<path d="M104.375 67.4671C109.044 69.3463 113.668 71.3687 118.228 73.5058C127.029 77.6251 131.767 84.7639 133.239 94.2287C133.359 94.9849 133.411 95.7641 132.597 96.4975C131.257 96.2568 130.531 95.7816 128.249 96.5949C125.966 97.4082 123.534 99.1845 123.092 102.169C122.52 106.008 123.511 109.532 125.321 112.878C125.722 113.622 126.146 114.35 126.564 115.095C122.084 120.549 116.28 122.921 109.48 123.133C106.907 123.213 104.306 122.984 101.768 123.282C97.8606 123.74 94.7725 125.791 91.9537 128.559C87.6682 132.764 83.228 136.883 76.8512 137.726C74.4106 137.462 71.9756 137.846 69.4948 137.416C54.7247 134.844 44.8416 121.563 47.4141 106.81C48.898 98.3022 53.3439 90.7739 56.9304 83.005C58.9414 78.645 62.6827 75.5626 65.6275 71.8901C76.8245 63.2124 91.29 62.2001 104.375 67.4671Z" fill="#FDFDFD"/>
<path d="M65.6217 71.8843C62.6769 75.5568 59.8686 78.3398 56.9246 82.9992C51.5768 91.4631 47.2306 96.7942 47.4083 106.804C47.6697 121.54 54.7188 134.844 69.489 137.41C71.9641 137.84 74.399 137.456 76.8454 137.72C73.3677 139.525 69.7124 139.066 66.0743 138.476C51.7569 136.681 45.2967 123.05 44.3374 107.979C43.4809 94.5256 51.3443 85.8066 59.1877 76.8173C60.9695 74.7719 62.8144 72.6578 65.6217 71.8843Z" fill="#646F8A"/>
<path d="M29.0518 27.8374C33.8415 24.1936 38.7515 25.2878 43.5412 27.6942C51.6482 31.7677 56.3806 41.4502 54.8222 50.3765C53.8024 56.1917 50.0955 60.0189 44.7157 60.8153C44.2688 60.6892 43.8219 60.5002 43.3693 60.4543C32.5466 59.3944 24.2048 47.9186 25.11 37.4512C25.4251 33.7787 27.4189 30.9083 29.0518 27.8374Z" fill="#FDFDFD"/>
<path d="M29.0516 27.8375C27.4187 30.9084 25.4249 33.773 25.1098 37.4512C24.2046 47.913 32.5464 59.3888 43.3691 60.4544C43.8274 60.5002 44.2686 60.695 44.7155 60.8153C42.8248 62.494 40.5732 61.8065 38.5851 61.4227C27.3729 59.2283 19.4435 45.8733 22.9613 35.0678C23.9697 31.9511 25.3218 28.8114 29.0516 27.8375Z" fill="#646F8A"/>
<path d="M83.4169 6.04312C88.2238 3.72848 92.4749 5.1207 96.4224 8.09421C105.16 14.6715 107.182 28.6567 100.605 37.2277C98.5193 39.9434 95.9641 42.0117 92.2457 41.8914C82.4314 39.4335 77.1146 32.7818 76.4615 22.6237C76.0318 15.8574 78.5183 10.4891 83.4169 6.04312Z" fill="#FDFDFD"/>
<path d="M83.417 6.04315C78.5184 10.4834 76.0262 15.8575 76.4616 22.6238C77.1147 32.7876 82.4315 39.4336 92.2458 41.8914C89.155 42.4745 88.2806 42.3585 85.8347 41.8227C78.1679 40.1431 74.7371 33.3318 73.4594 25.9869C72.4912 20.4065 73.2933 14.9293 76.9944 10.2828C78.6616 8.2031 80.4549 6.2093 83.417 6.04315Z" fill="#646F8A"/>
<path d="M10.1736 78.8627C12.0356 76.9491 14.3617 76.8517 16.8081 77.1095C23.9125 77.8543 29.8366 84.9014 29.1204 91.788C28.7194 95.6495 26.2157 98.159 22.3484 98.5829C11.308 96.698 6.87925 89.5134 10.1736 78.8627Z" fill="#FDFDFD"/>
<path d="M10.1735 78.8626C6.87914 89.5191 11.3079 96.6979 22.3425 98.5886C22.2681 99.1673 21.867 99.3334 21.3628 99.4251C13.3132 100.823 4.92545 93.0885 5.65307 84.9414C5.94526 81.6471 7.49218 79.5788 10.1735 78.8626Z" fill="#646F8A"/>
<path d="M130.042 32.6042C133.766 30.5589 137.009 31.0631 140.086 34.1626C145.454 39.5768 144.446 50.3766 138.172 54.6965C137.29 55.3038 136.316 55.6532 135.227 55.6361C129.32 54.0949 126.582 50.9781 125.906 45.3691C125.304 40.4362 127.046 36.334 130.042 32.6042Z" fill="#FDFDFD"/>
<path d="M130.042 32.6042C127.046 36.334 125.304 40.4362 125.9 45.3749C126.576 50.9839 129.314 54.0949 135.221 55.6418C133.411 57.3606 131.36 56.6272 129.469 56.0085C125.441 54.6907 122.508 49.6375 122.646 44.567C122.772 40.2471 124.932 34.2256 130.042 32.6042Z" fill="#646F8A"/>
<path d="M38.8947 112.889C38.6493 105.407 38.8434 101.543 41.5835 94.5765C44.9938 85.9064 49.0887 80.2536 55.5842 73.5745C69.0774 59.7001 85.5198 55.8652 103.808 62.1503C111.594 64.8259 119.518 67.639 126.238 72.7037C133.789 78.3929 137.634 86.116 137.96 95.512C138.04 97.7178 138.802 99.1501 140.344 100.651C144.973 105.154 147.379 110.517 145.924 117.157C144.91 121.798 140.917 123.668 136.809 122.829C128.798 121.194 125.424 122.795 124.038 123.706C117.793 127.814 110.843 129.091 103.556 128.673C100.118 128.473 97.6029 129.596 95.2539 132.042C89.8798 137.645 83.6635 141.822 75.78 143.249C63.061 145.558 49.5856 139.786 42.7276 127.178C39.9671 122.103 39.0841 118.663 38.8947 112.889ZM76.8457 137.72C83.2167 136.878 87.6626 132.758 91.9481 128.553C94.7669 125.786 97.855 123.735 101.762 123.276C104.306 122.978 106.907 123.208 109.474 123.127C116.275 122.915 122.079 120.543 126.559 115.089C126.141 114.35 125.717 113.617 125.316 112.872C123.505 109.526 122.514 106.002 123.087 102.164C123.534 99.1788 125.426 96.5882 128.798 96.2755C130.377 96.1291 131.251 96.2568 132.592 96.4917C133.405 95.7584 133.348 94.9792 133.234 94.2229C131.761 84.7639 127.017 77.6194 118.223 73.5C113.662 71.363 109.044 69.3406 104.369 67.4614C91.2465 62.1851 76.7367 63.2559 65.6105 71.8786C62.8031 72.6521 59.1822 76.8116 59.1822 76.8116C59.1822 76.8116 43.4792 94.5196 44.3318 107.973C45.2569 122.569 51.5886 136.414 66.0688 138.47C70.2457 139.063 73.3622 139.525 76.8457 137.72Z" fill="#08090D"/>
<path d="M176.438 150.519C174.691 150.869 172.96 150.026 171.379 148.938C167.724 146.423 164.2 146.474 160.476 148.892C156.248 151.636 151.877 151.109 147.826 148.514C144.01 146.067 142.28 142.355 142.48 137.8C142.578 135.531 143.414 133.514 144.921 131.853C146.331 130.306 147.82 128.816 149.407 127.453C152.157 125.081 153.916 122.48 154.38 118.578C155.434 109.715 163.559 105.235 171.11 109.01C175.109 111.01 177.103 114.591 177.469 118.899C177.698 121.58 178.678 123.608 180.62 125.356C182.322 126.886 183.949 128.501 185.53 130.151C189.06 133.835 190.377 138.109 188.424 142.979C186.424 147.947 182.23 150.553 176.438 150.519Z" fill="#08090D"/>
<path d="M41.4269 66.3842C30.2662 66.3957 19.1915 56.2949 17.6446 44.9795C17.0373 40.5221 17.1347 36.2022 18.8592 32.0714C23.0187 22.1081 34.4544 17.92 44.4864 22.5665C55.3319 27.5853 61.5998 39.5539 59.5487 51.3219C57.9732 60.3226 50.6969 66.3728 41.4269 66.3842ZM44.7155 60.8153C50.0954 60.019 53.8022 56.1918 54.822 50.3765C56.3804 41.4503 51.648 31.7677 43.541 27.6942C38.7513 25.2879 33.8413 24.1936 29.0516 27.8374C25.3218 28.8057 23.9697 31.9511 22.9614 35.0621C19.4436 45.8676 27.3729 59.2226 38.5852 61.4169C40.5733 61.8065 42.8249 62.494 44.7155 60.8153Z" fill="#08090D"/>
<path d="M109.336 23.0076C109.342 35.0048 104.037 43.5529 96.1761 46.2629C86.8946 49.4655 76.4558 44.842 71.5745 35.2225C67.5525 27.2931 66.9165 19.1575 70.9041 11.0162C76.9084 -1.25599 91.4093 -3.69668 101.264 5.83116C106.701 11.0907 109.061 17.645 109.336 23.0076ZM83.4169 6.04314C80.4492 6.20356 78.6616 8.19736 76.9944 10.2828C73.2933 14.9293 72.4912 20.4008 73.4594 25.9869C74.737 33.3318 77.8285 38.6662 85.1907 41.3418C87.2131 42.0752 90.2876 42.4745 92.2458 41.8914C94.204 41.3083 98.5251 39.9434 100.611 37.2278C107.182 28.6567 105.16 14.6715 96.4282 8.09423C92.475 5.12645 88.2296 3.7285 83.4169 6.04314Z" fill="#08090D"/>
<path d="M185.399 114.602C185.634 106.128 191.128 98.8179 198.061 96.5376C204.495 94.4177 209.903 98.7319 208.883 105.418C207.84 112.276 204.374 117.702 198.267 121.231C195.477 122.841 192.48 124.164 189.375 122.291C186.063 120.297 185.382 116.922 185.399 114.602Z" fill="#08090D"/>
<path d="M162.115 82.644C162.115 86.736 161.611 89.7368 158.924 92.6244C156.133 95.6208 152.415 95.8959 149.247 93.3177C142.956 88.1899 140.515 76.4563 144.033 69.2087C146.686 63.7487 152.879 64.1097 155.95 67.1748C160.224 71.4432 162.115 77.5867 162.115 82.644Z" fill="#08090D"/>
<path d="M181.004 64.9862C184.333 64.969 186.682 66.5732 187.902 69.8561C190.509 76.8574 189.541 83.5263 185.616 89.7769C183.594 92.9968 180.826 95.5062 176.753 94.9104C172.519 94.2974 170.955 90.7624 170.239 87.1243C168.881 80.2491 170.319 73.8552 174.69 68.315C176.3 66.2696 178.346 64.6081 181.004 64.9862Z" fill="#08090D"/>
<path d="M19.3634 104.444C8.31156 104.392 -0.798033 93.6843 1.0468 82.919C1.98068 77.499 7.10841 72.8297 13.3419 72.2395C25.637 71.0765 36.007 82.5638 33.7669 93.5239C32.4262 100.061 26.737 104.478 19.3634 104.444ZM22.3426 98.5829C26.2157 98.1532 28.7136 95.6438 29.1204 91.7879C29.8366 84.9013 23.9125 77.8485 16.8081 77.1095C14.3617 76.8516 12.0356 76.949 10.1736 78.8626C7.48654 79.5788 5.94536 81.6471 5.65317 84.9414C4.91982 93.0885 13.3132 100.823 21.3629 99.4251C21.8671 99.3334 22.2682 99.1616 22.3426 98.5829Z" fill="#08090D"/>
<path d="M148.284 43.2263C148.147 49.5686 145.987 54.8682 140.699 58.7642C134.637 63.2273 126.186 62.1158 121.58 56.0829C115.885 48.6233 116.893 36.7866 123.866 30.513C128.209 26.6056 133.377 25.4253 138.745 27.6426C144.858 30.1692 147.688 35.337 148.279 41.7997C148.319 42.2695 148.284 42.7508 148.284 43.2263ZM130.042 32.6042C124.932 34.2256 122.766 40.2528 122.651 44.567C122.514 49.6317 125.447 54.6849 129.475 56.0084C131.36 56.6271 133.417 57.3605 135.227 55.6417C136.316 55.6589 137.29 55.3094 138.172 54.7021C144.446 50.3822 145.454 39.5825 140.086 34.1683C137.009 31.063 133.766 30.5588 130.042 32.6042Z" fill="#08090D"/>
</svg>
