<svg width="80" height="58" viewBox="0 0 80 58" fill="none" xmlns="http://www.w3.org/2000/svg">
<path d="M39.3933 25.6622C41.1694 26.377 42.928 27.1462 44.6627 27.9591C48.01 29.5259 49.8122 32.2413 50.3723 35.8414C50.4181 36.129 50.4377 36.4254 50.1282 36.7043C49.6183 36.6128 49.3424 36.432 48.4742 36.7414C47.606 37.0507 46.6807 37.7264 46.5129 38.8618C46.295 40.3219 46.672 41.6621 47.3606 42.9348C47.5131 43.2181 47.6744 43.4948 47.8335 43.7781C46.1293 45.8528 43.9218 46.755 41.335 46.8356C40.3566 46.8661 39.3672 46.7789 38.4018 46.8922C36.9155 47.0666 35.7409 47.8468 34.6688 48.8993C33.0387 50.4989 31.3498 52.0657 28.9243 52.3861C27.9959 52.2858 27.0698 52.4319 26.1262 52.2684C20.5081 51.2899 16.7489 46.2385 17.7274 40.627C18.2918 37.3908 19.9829 34.5273 21.3471 31.5722C22.112 29.9139 23.5351 28.7414 24.6552 27.3445C28.9141 24.0439 34.4163 23.6588 39.3933 25.6622Z" fill="#FDFDFD"/>
<path d="M24.653 27.3423C23.5328 28.7392 22.4647 29.7978 21.3449 31.5701C19.3108 34.7894 17.6576 36.8172 17.7252 40.6248C17.8246 46.2298 20.5059 51.2899 26.1239 52.2662C27.0654 52.4297 27.9915 52.2837 28.9221 52.3839C27.5993 53.0704 26.2089 52.896 24.8251 52.6716C19.3793 51.9888 16.922 46.804 16.5571 41.0715C16.2314 35.9543 19.2223 32.6379 22.2057 29.2187C22.8834 28.4407 23.5851 27.6365 24.653 27.3423Z" fill="#646F8A"/>
<path d="M10.7429 10.5884C12.5648 9.20241 14.4324 9.61864 16.2542 10.5339C19.3378 12.0834 21.1379 15.7663 20.5451 19.1615C20.1572 21.3734 18.7472 22.8292 16.7009 23.1321C16.531 23.0841 16.361 23.0122 16.1888 22.9948C12.0723 22.5916 8.89929 18.2266 9.24361 14.2452C9.36347 12.8483 10.1218 11.7565 10.7429 10.5884Z" fill="#FDFDFD"/>
<path d="M10.7429 10.5884C10.1219 11.7564 9.36348 12.8461 9.24363 14.2451C8.89931 18.2244 12.0723 22.5894 16.1888 22.9947C16.3632 23.0122 16.531 23.0863 16.701 23.132C15.9818 23.7706 15.1254 23.509 14.3692 23.363C10.1044 22.5284 7.08837 17.4486 8.42641 13.3386C8.80996 12.1531 9.32426 10.9588 10.7429 10.5884Z" fill="#646F8A"/>
<path d="M31.4215 2.29858C33.2499 1.41817 34.8669 1.94772 36.3684 3.07874C39.6917 5.5805 40.461 10.9 37.9592 14.1601C37.166 15.1931 36.1941 15.9798 34.7797 15.934C31.0467 14.9991 29.0244 12.4691 28.776 8.60527C28.6125 6.0316 29.5583 3.98966 31.4215 2.29858Z" fill="#FDFDFD"/>
<path d="M31.4215 2.29858C29.5583 3.98749 28.6103 6.03161 28.7759 8.60528C29.0243 12.4712 31.0467 14.9992 34.7797 15.934C33.6041 16.1558 33.2714 16.1117 32.3411 15.9079C29.4249 15.269 28.12 12.6783 27.634 9.88449C27.2657 7.76192 27.5708 5.67857 28.9786 3.91122C29.6127 3.12015 30.2948 2.36178 31.4215 2.29858Z" fill="#646F8A"/>
<path d="M3.5623 29.9966C4.27055 29.2688 5.15532 29.2317 6.08585 29.3298C8.7881 29.6131 11.0414 32.2936 10.769 34.913C10.6165 36.3818 9.66415 37.3363 8.19317 37.4976C3.99379 36.7806 2.30924 34.0478 3.5623 29.9966Z" fill="#FDFDFD"/>
<path d="M3.56239 29.9966C2.30933 34.05 3.99388 36.7806 8.19108 37.4997C8.16275 37.7198 8.0102 37.783 7.81843 37.8179C4.75661 38.3496 1.56621 35.4077 1.84298 32.3088C1.95412 31.0558 2.54251 30.269 3.56239 29.9966Z" fill="#646F8A"/>
<path d="M49.1562 12.4015C50.5727 11.6235 51.8062 11.8153 52.9764 12.9942C55.0184 15.0536 54.6348 19.1615 52.2486 20.8046C51.913 21.0356 51.5425 21.1685 51.1284 21.162C48.8816 20.5758 47.84 19.3903 47.5828 17.2568C47.354 15.3805 48.0165 13.8202 49.1562 12.4015Z" fill="#FDFDFD"/>
<path d="M49.1562 12.4016C48.0165 13.8202 47.354 15.3806 47.5806 17.2591C47.8378 19.3925 48.8795 20.5759 51.1262 21.1642C50.4376 21.818 49.6574 21.5391 48.9383 21.3037C47.4063 20.8025 46.2905 18.8804 46.3428 16.9518C46.3908 15.3086 47.2123 13.0183 49.1562 12.4016Z" fill="#646F8A"/>
<path d="M14.4869 42.9391C14.3935 40.0932 14.4673 38.6235 15.5096 35.9737C16.8068 32.6759 18.3643 30.5257 20.835 27.9852C25.9673 22.7079 32.2215 21.2492 39.1776 23.6398C42.1392 24.6575 45.153 25.7275 47.7093 27.654C50.5815 29.818 52.0438 32.7556 52.168 36.3295C52.1985 37.1685 52.4883 37.7133 53.0745 38.2843C54.8354 39.9972 55.7506 42.0369 55.1971 44.5626C54.8114 46.3278 53.2925 47.0391 51.73 46.7201C48.683 46.098 47.3998 46.707 46.8725 47.0535C44.4971 48.616 41.8537 49.102 39.0817 48.9429C37.7742 48.8666 36.8175 49.2938 35.924 50.2243C33.8799 52.3556 31.5154 53.9442 28.5168 54.4869C23.6789 55.3651 18.5533 53.1699 15.9448 48.3741C14.8948 46.4437 14.5589 45.1355 14.4869 42.9391ZM28.9221 52.3839C31.3454 52.0636 33.0365 50.4967 34.6666 48.8971C35.7388 47.8446 36.9134 47.0644 38.3996 46.8901C39.3672 46.7767 40.3565 46.8639 41.3328 46.8334C43.9196 46.7528 46.1272 45.8506 47.8313 43.7759C47.6722 43.4948 47.511 43.2159 47.3584 42.9326C46.6698 41.6599 46.2928 40.3197 46.5107 38.8596C46.6807 37.7242 47.4002 36.7388 48.6829 36.6199C49.2835 36.5642 49.6161 36.6128 50.126 36.7022C50.4355 36.4232 50.4137 36.1268 50.3701 35.8392C49.8101 32.2413 48.0057 29.5238 44.6605 27.9569C42.9259 27.144 41.1694 26.3748 39.3911 25.66C34.3997 23.6531 28.8807 24.0604 24.6486 27.3402C23.5808 27.6344 22.2035 29.2165 22.2035 29.2165C22.2035 29.2165 16.2307 35.952 16.555 41.0693C16.9068 46.6212 19.3152 51.8873 24.823 52.6694C26.4117 52.895 27.5971 53.0704 28.9221 52.3839Z" fill="#08090D"/>
<path d="M66.8036 57.2523C66.1389 57.3853 65.4808 57.0649 64.8793 56.6509C63.489 55.6942 62.1487 55.7138 60.7322 56.6334C59.124 57.6773 57.4612 57.4768 55.9205 56.4896C54.4691 55.5591 53.811 54.1469 53.8873 52.4144C53.9243 51.5515 54.2425 50.7844 54.8156 50.1524C55.3517 49.564 55.9183 48.9974 56.522 48.4788C57.568 47.5766 58.237 46.5872 58.4135 45.1031C58.8145 41.7318 61.9047 40.0277 64.7769 41.4638C66.298 42.2244 67.0564 43.5864 67.1958 45.2252C67.283 46.245 67.6557 47.0165 68.3944 47.6812C69.0417 48.263 69.6606 48.8776 70.262 49.5052C71.6044 50.9064 72.1057 52.5321 71.3625 54.3845C70.602 56.2739 69.0068 57.2654 66.8036 57.2523Z" fill="#08090D"/>
<path d="M15.4499 25.2503C11.2048 25.2547 6.99229 21.4127 6.4039 17.1087C6.1729 15.4133 6.20995 13.7701 6.8659 12.1989C8.44802 8.40921 12.7978 6.81619 16.6136 8.58355C20.7389 10.4926 23.123 15.045 22.3428 19.5211C21.7435 22.9447 18.9759 25.246 15.4499 25.2503ZM16.7008 23.1321C18.7471 22.8292 20.157 21.3735 20.5449 19.1615C21.1377 15.7663 19.3376 12.0834 16.254 10.534C14.4322 9.61868 12.5646 9.20245 10.7428 10.5884C9.32407 10.9567 8.80977 12.1531 8.42623 13.3365C7.08818 17.4465 10.1042 22.5263 14.369 23.3609C15.1252 23.5091 15.9816 23.7706 16.7008 23.1321Z" fill="#08090D"/>
<path d="M41.2805 8.75131C41.2827 13.3146 39.2647 16.566 36.2748 17.5968C32.7444 18.815 28.7739 17.0564 26.9172 13.3974C25.3873 10.3814 25.1454 7.28687 26.6622 4.19018C28.946 -0.477737 34.4617 -1.40609 38.2099 2.21797C40.278 4.21851 41.1759 6.71155 41.2805 8.75131ZM31.4216 2.2986C30.2928 2.35962 29.6129 3.118 28.9787 3.91124C27.5709 5.67859 27.2658 7.75976 27.6341 9.88451C28.1201 12.6783 29.296 14.7073 32.0963 15.725C32.8656 16.004 34.035 16.1558 34.7798 15.9341C35.5247 15.7123 37.1683 15.1931 37.9615 14.1602C40.4611 10.9 39.6918 5.58053 36.3707 3.07877C34.867 1.94993 33.2522 1.4182 31.4216 2.2986Z" fill="#08090D"/>
<path d="M70.212 43.5907C70.3014 40.3676 72.3913 37.5869 75.0281 36.7196C77.4754 35.9133 79.5326 37.5542 79.1447 40.0974C78.7481 42.7059 77.4297 44.7697 75.1066 46.1121C74.0453 46.7244 72.9056 47.2278 71.7244 46.5152C70.4648 45.7568 70.2055 44.4733 70.212 43.5907Z" fill="#08090D"/>
<path d="M61.3556 31.4349C61.3556 32.9914 61.1638 34.1328 60.1418 35.2312C59.0805 36.3709 57.6662 36.4755 56.461 35.4948C54.0682 33.5444 53.1399 29.0814 54.4779 26.3246C55.4869 24.2478 57.8427 24.3851 59.0108 25.551C60.6365 27.1745 61.3556 29.5113 61.3556 31.4349Z" fill="#08090D"/>
<path d="M68.5405 24.7185C69.8066 24.712 70.7001 25.3222 71.1643 26.5709C72.1558 29.2339 71.7875 31.7705 70.2947 34.1481C69.5255 35.3728 68.4729 36.3273 66.9235 36.1007C65.313 35.8675 64.7181 34.5229 64.4457 33.1391C63.9292 30.524 64.4762 28.092 66.1389 25.9847C66.7513 25.2067 67.5293 24.5747 68.5405 24.7185Z" fill="#08090D"/>
<path d="M7.0578 39.7269C2.85406 39.7073 -0.61092 35.6343 0.0907926 31.5396C0.446007 29.478 2.39642 27.7019 4.76743 27.4775C9.44406 27.0351 13.3885 31.4045 12.5364 35.5733C12.0264 38.0598 9.86247 39.74 7.0578 39.7269ZM8.191 37.4976C9.66416 37.3342 10.6143 36.3796 10.769 34.913C11.0414 32.2936 8.78811 29.6109 6.08586 29.3298C5.15533 29.2318 4.27056 29.2688 3.56231 29.9967C2.54025 30.2691 1.95404 31.0558 1.8429 32.3088C1.56395 35.4077 4.75653 38.3497 7.81835 37.8179C8.01012 37.7831 8.16267 37.7177 8.191 37.4976Z" fill="#08090D"/>
<path d="M56.0949 16.4418C56.0426 18.8542 55.221 20.87 53.2096 22.3519C50.904 24.0495 47.6896 23.6267 45.9375 21.332C43.7713 18.4946 44.1549 13.9923 46.807 11.6061C48.4589 10.1198 50.4245 9.67091 52.4665 10.5143C54.7917 11.4753 55.8682 13.441 56.0927 15.8992C56.108 16.0779 56.0949 16.2609 56.0949 16.4418ZM49.1562 12.4015C47.2123 13.0182 46.3886 15.3108 46.345 16.9517C46.2927 18.8782 47.4085 20.8002 48.9405 21.3037C49.6574 21.539 50.4398 21.818 51.1284 21.1642C51.5425 21.1707 51.9129 21.0378 52.2485 20.8068C54.6348 19.1636 55.0183 15.0558 52.9764 12.9964C51.8062 11.8153 50.5727 11.6235 49.1562 12.4015Z" fill="#08090D"/>
</svg>
