<svg width="30" height="30" viewBox="0 0 30 30" fill="none" xmlns="http://www.w3.org/2000/svg">
<path d="M8.92857 24C7.29167 24 5.96726 25.35 5.96726 27C5.96726 28.65 7.29167 30 8.92857 30C10.5655 30 11.9048 28.65 11.9048 27C11.9048 25.35 10.5655 24 8.92857 24ZM23.8095 24C22.1726 24 20.8482 25.35 20.8482 27C20.8482 28.65 22.1726 30 23.8095 30C25.4464 30 26.7857 28.65 26.7857 27C26.7857 25.35 25.4464 24 23.8095 24ZM9.18155 19.125L9.22619 18.945L10.5655 16.5H21.6518C22.7679 16.5 23.75 15.885 24.256 14.955L30 4.44L27.4107 3H27.3958L25.7589 6L21.6518 13.5H11.2054L11.0119 13.095L7.67857 6L6.26488 3L4.86607 0H0V3H2.97619L8.33333 14.385L6.3244 18.06C6.08631 18.48 5.95238 18.975 5.95238 19.5C5.95238 21.15 7.29167 22.5 8.92857 22.5H26.7857V19.5H9.55357C9.36012 19.5 9.18155 19.335 9.18155 19.125Z" fill="white"/>
</svg>
