<svg width="30" height="36" viewBox="0 0 30 36" fill="none" xmlns="http://www.w3.org/2000/svg">
<path d="M21.3403 16.3V7.8C21.3403 5.99653 20.6723 4.26692 19.4833 2.99167C18.2942 1.71643 16.6815 1 15 1C13.3185 1 11.7058 1.71643 10.5167 2.99167C9.32771 4.26692 8.65971 5.99653 8.65971 7.8V16.3M2.40027 12.764C2.43215 12.338 2.61247 11.9405 2.90533 11.6506C3.19819 11.3608 3.58209 11.1999 3.98058 11.2H26.0194C26.4179 11.1999 26.8018 11.3608 27.0947 11.6506C27.3875 11.9405 27.5679 12.338 27.5997 12.764L28.9898 31.328C29.0248 31.7958 28.9692 32.2664 28.8263 32.71C28.6834 33.1536 28.4565 33.5607 28.1597 33.9056C27.863 34.2506 27.5029 34.5259 27.1021 34.7142C26.7012 34.9026 26.2684 34.9999 25.8308 35H4.16921C3.7316 34.9999 3.29877 34.9026 2.89795 34.7142C2.49713 34.5259 2.13701 34.2506 1.84026 33.9056C1.54351 33.5607 1.31656 33.1536 1.17369 32.71C1.03083 32.2664 0.975153 31.7958 1.01016 31.328L2.40027 12.764Z" stroke="white" stroke-width="2" stroke-linecap="round" stroke-linejoin="round"/>
</svg>
