<svg width="30" height="34" viewBox="0 0 30 34" fill="none" xmlns="http://www.w3.org/2000/svg">
<path d="M27.2751 16.8358C27.2751 17.5373 27.6247 18.9403 28.3241 21.0448C29.0235 23.1493 29.3731 24.5522 29.3731 25.2537C29.3731 26.6786 29.16 28.0268 28.7339 29.2983C28.3077 30.5697 27.6848 31.6165 26.8653 32.4385C26.0457 33.2606 25.1333 33.6716 24.1279 33.6716H9.44137C9.15725 33.6716 8.91138 33.5675 8.70376 33.3593C8.49614 33.151 8.39232 32.9044 8.39232 32.6194C8.39232 32.3344 8.49614 32.0878 8.70376 31.8795C8.91138 31.6713 9.15725 31.5672 9.44137 31.5672C9.74734 31.5672 9.99867 31.4685 10.1954 31.2712C10.3921 31.0739 10.4904 30.8218 10.4904 30.5149C10.4904 29.945 10.2719 29.2818 9.83475 28.5255C9.39765 27.7692 8.87313 26.991 8.26119 26.1909C7.64925 25.3907 7.03731 24.5632 6.42537 23.7083C5.81343 22.8533 5.28891 21.9107 4.85181 20.8804C4.41471 19.85 4.19616 18.8526 4.19616 17.8881C4.19616 16.2439 4.85181 14.8848 6.16311 13.8106C5.90085 13.0215 5.2452 12.6269 4.19616 12.6269C3.56237 12.6269 2.90125 12.4022 2.21282 11.9528C1.52439 11.5034 0.983476 11.0321 0.590085 10.5388C0.196695 10.0456 0 9.68937 0 9.47015C0 9.18517 0.103811 8.93855 0.311434 8.73029C0.519057 8.52204 0.764925 8.41791 1.04904 8.41791C1.22388 8.41791 1.40965 8.26446 1.60634 7.95756C1.80304 7.65065 2.02705 7.26702 2.27838 6.80667C2.52972 6.34632 2.8193 5.88048 3.14712 5.40917C3.47495 4.93785 3.91205 4.49942 4.45842 4.09387C5.0048 3.68832 5.61674 3.40882 6.29424 3.25536V0C6.79691 0 7.38699 0.389109 8.0645 1.16733C8.742 1.94555 9.1791 2.75117 9.3758 3.58419C10.4248 4.02262 11.2225 4.7844 11.7689 5.86952C12.3153 6.95464 12.5885 8.15485 12.5885 9.47015C12.5885 10.1059 12.7251 10.7087 12.9983 11.2787C13.2715 11.8486 13.6594 12.3583 14.162 12.8077C14.6647 13.2571 15.0745 13.5969 15.3914 13.8271C15.7083 14.0573 16.1071 14.3148 16.588 14.5998C16.6754 14.6656 16.7409 14.7094 16.7846 14.7313C18.0522 15.4548 19.1013 16.1562 19.9318 16.8358C21.4398 18.0854 22.691 19.6528 23.6854 21.538C24.6798 23.4233 25.177 25.0126 25.177 26.306C25.177 26.3937 25.1879 26.4923 25.2098 26.6019C25.2316 26.7115 25.33 26.865 25.5048 27.0623C25.6796 27.2596 25.92 27.3582 26.226 27.3582C26.532 27.3582 26.7833 27.1883 26.98 26.8485C27.1767 26.5087 27.2751 25.9771 27.2751 25.2537C27.2751 24.4865 27.133 23.7192 26.8489 22.952C26.5648 22.1847 26.2151 21.4558 25.7998 20.7653C25.3846 20.0747 24.9694 19.3568 24.5541 18.6115C24.1389 17.8661 23.7892 16.9728 23.5051 15.9316C23.2209 14.8903 23.0789 13.7887 23.0789 12.6269C23.0789 11.5746 23.516 10.6101 24.3902 9.73321C25.2644 8.85634 26.226 8.41791 27.2751 8.41791C27.8651 8.41791 28.3623 8.62069 28.7667 9.02624C29.171 9.43179 29.3731 9.9305 29.3731 10.5224C29.3731 10.8731 29.3076 11.1855 29.1764 11.4595C29.0453 11.7336 28.8759 11.9857 28.6683 12.2158C28.4607 12.446 28.3459 12.583 28.3241 12.6269C27.6247 13.7887 27.2751 15.1917 27.2751 16.8358Z" fill="#FFCD3E"/>
</svg>
