<svg width="33" height="34" viewBox="0 0 33 34" fill="none" xmlns="http://www.w3.org/2000/svg">
<path d="M28.9205 33.6716C28.2965 33.6716 27.6886 33.5401 27.0969 33.2771C26.5051 33.014 26.0694 32.7619 25.7896 32.5208C25.5099 32.2796 25.1764 31.9618 24.789 31.5672C23.4119 32.9702 21.3461 33.6716 18.5918 33.6716H3.09863C2.81889 33.6716 2.57681 33.5675 2.37239 33.3593C2.16797 33.151 2.06575 32.9044 2.06575 32.6194C2.06575 32.3344 2.16797 32.0878 2.37239 31.8795C2.57681 31.6713 2.81889 31.5672 3.09863 31.5672C3.35685 31.5672 3.66348 31.3205 4.01854 30.8273C4.37359 30.3341 4.7125 29.7093 5.03527 28.953C5.35805 28.1967 5.63241 27.2924 5.85835 26.2402C6.08429 25.188 6.19726 24.1576 6.19726 23.1493C6.19726 22.5793 6.12733 22.097 5.98746 21.7024C5.84759 21.3078 5.67544 20.9681 5.47102 20.6831C5.2666 20.3981 5.06217 20.0857 4.85775 19.7459C4.65332 19.4061 4.48118 18.9019 4.34131 18.2333C4.20144 17.5647 4.13151 16.7481 4.13151 15.7836C4.13151 15.2136 4.20144 14.7478 4.34131 14.3861C4.48118 14.0244 4.65332 13.7504 4.85775 13.564C5.06217 13.3777 5.2666 13.1859 5.47102 12.9886C5.67544 12.7913 5.84759 12.4899 5.98746 12.0843C6.12733 11.6788 6.19726 11.1581 6.19726 10.5224C6.19726 9.1194 5.50868 8.41791 4.13151 8.41791C3.16319 8.41791 2.23252 8.03976 1.33951 7.28347C0.446504 6.52717 0 5.85308 0 5.26119C0 4.757 0.231321 4.2802 0.693964 3.83081C1.15661 3.38141 1.61387 3.15672 2.06575 3.15672C2.43156 3.15672 2.77048 3.04711 3.08249 2.82789C3.39451 2.60868 3.69038 2.34562 3.97012 2.03871C4.24986 1.73181 4.55649 1.42491 4.89003 1.118C5.22356 0.811101 5.67544 0.548041 6.24568 0.328825C6.81591 0.109608 7.48836 0 8.26301 0C9.27437 0 10.0974 0.120569 10.7322 0.361707C11.367 0.602845 11.8404 0.915229 12.1524 1.29886C12.4645 1.68249 12.7173 2.21957 12.911 2.9101C13.1046 3.60063 13.2391 4.28568 13.3144 4.96525C13.3897 5.64482 13.5242 6.51073 13.7179 7.56297C13.9116 8.61521 14.159 9.60168 14.4603 10.5224C14.8691 11.7719 15.8321 13.3667 17.3491 15.3068C18.8661 17.2469 19.969 18.458 20.6575 18.9403C23.4119 20.8036 24.789 23.6096 24.789 27.3582C24.789 28.4324 25.4023 29.4024 26.6289 30.2683C27.8554 31.1342 29.3079 31.5672 30.9863 31.5672C31.5458 31.5672 32.2021 31.4576 32.9552 31.2383C32.7616 32.0056 32.2882 32.603 31.535 33.0304C30.7819 33.4579 29.9104 33.6716 28.9205 33.6716ZM10.3288 23.1493C10.2642 23.5 10.1781 23.9549 10.0705 24.5139C9.96296 25.0729 9.73164 25.9223 9.37658 27.0623C9.02153 28.2022 8.65034 29.0023 8.26301 29.4627H12.3945C12.3945 28.5201 12.2869 27.7035 12.0717 27.0129C11.8566 26.3224 11.6199 25.8237 11.3616 25.5168C11.1034 25.2099 10.8667 24.8537 10.6515 24.4481C10.4364 24.0426 10.3288 23.6096 10.3288 23.1493Z" fill="white"/>
</svg>
