<svg width="26" height="25" viewBox="0 0 26 25" fill="none" xmlns="http://www.w3.org/2000/svg">
<path d="M3.25 11.7C5.04493 11.7 6.5 10.2449 6.5 8.45C6.5 6.65507 5.04493 5.2 3.25 5.2C1.45507 5.2 0 6.65507 0 8.45C0 10.2449 1.45507 11.7 3.25 11.7Z" fill="white"/>
<path d="M9.1 6.5C10.8949 6.5 12.35 5.04493 12.35 3.25C12.35 1.45507 10.8949 0 9.1 0C7.30507 0 5.85 1.45507 5.85 3.25C5.85 5.04493 7.30507 6.5 9.1 6.5Z" fill="white"/>
<path d="M16.9 6.5C18.6949 6.5 20.15 5.04493 20.15 3.25C20.15 1.45507 18.6949 0 16.9 0C15.1051 0 13.65 1.45507 13.65 3.25C13.65 5.04493 15.1051 6.5 16.9 6.5Z" fill="white"/>
<path d="M22.75 11.7C24.5449 11.7 26 10.2449 26 8.45C26 6.65507 24.5449 5.2 22.75 5.2C20.9551 5.2 19.5 6.65507 19.5 8.45C19.5 10.2449 20.9551 11.7 22.75 11.7Z" fill="white"/>
<path d="M19.942 15.418C18.811 14.092 17.862 12.961 16.718 11.635C16.12 10.933 15.353 10.231 14.443 9.919C14.3 9.867 14.157 9.828 14.014 9.802C13.689 9.75 13.338 9.75 13 9.75C12.662 9.75 12.311 9.75 11.973 9.815C11.83 9.841 11.687 9.88 11.544 9.932C10.634 10.244 9.87999 10.946 9.26899 11.648C8.13799 12.974 7.18899 14.105 6.04499 15.431C4.34199 17.134 2.24899 19.019 2.63899 21.658C3.01599 22.984 3.96499 24.297 5.66799 24.674C6.61699 24.869 9.64599 24.102 12.87 24.102H13.104C16.328 24.102 19.357 24.856 20.306 24.674C22.009 24.297 22.958 22.971 23.335 21.658C23.738 19.006 21.645 17.121 19.942 15.418Z" fill="white"/>
</svg>
