<svg width="24" height="24" viewBox="0 0 24 24" fill="none" xmlns="http://www.w3.org/2000/svg">
<path d="M12 11.2969C10.5784 11.2969 9.42188 12.4534 9.42188 13.875C9.42188 15.2966 10.5784 16.4531 12 16.4531C13.4216 16.4531 14.5781 15.2966 14.5781 13.875C14.5781 12.4534 13.4216 11.2969 12 11.2969Z" fill="white"/>
<path d="M21.8906 6.16406H17.6601L16.533 2.84428C16.4362 2.55905 16.1684 2.36719 15.8672 2.36719H8.13281C7.83159 2.36719 7.56384 2.55905 7.467 2.84428L6.33994 6.16406H4.96875V5.46094C4.96875 5.07262 4.65394 4.75781 4.26562 4.75781H2.85938C2.47106 4.75781 2.15625 5.07262 2.15625 5.46094V6.16406H2.10938C0.946266 6.16406 0 7.11033 0 8.27344V19.5234C0 20.6865 0.946266 21.6328 2.10938 21.6328H21.8906C23.0537 21.6328 24 20.6865 24 19.5234V8.27344C24 7.11033 23.0537 6.16406 21.8906 6.16406ZM12 18.8203C9.28608 18.8203 7.07812 16.6124 7.07812 13.8984C7.07812 11.1845 9.28608 8.97656 12 8.97656C14.7139 8.97656 16.9219 11.1845 16.9219 13.8984C16.9219 16.6124 14.7139 18.8203 12 18.8203ZM20.25 10.6172C19.8617 10.6172 19.5469 10.3024 19.5469 9.91406C19.5469 9.52575 19.8617 9.21094 20.25 9.21094C20.6383 9.21094 20.9531 9.52575 20.9531 9.91406C20.9531 10.3024 20.6383 10.6172 20.25 10.6172Z" fill="white"/>
</svg>
