<svg width="19" height="19" viewBox="0 0 19 19" fill="none" xmlns="http://www.w3.org/2000/svg">
<path d="M8 16C9.77498 15.9996 11.4988 15.4054 12.897 14.312L17.293 18.708L18.707 17.294L14.311 12.898C15.405 11.4997 15.9996 9.77544 16 8C16 3.589 12.411 0 8 0C3.589 0 0 3.589 0 8C0 12.411 3.589 16 8 16ZM8 2C11.309 2 14 4.691 14 8C14 11.309 11.309 14 8 14C4.691 14 2 11.309 2 8C2 4.691 4.691 2 8 2Z" fill="white"/>
<path d="M9.41207 6.58599C9.79107 6.96599 10.0001 7.46799 10.0001 7.99999H12.0001C12.001 7.47442 11.8977 6.95389 11.6961 6.46848C11.4946 5.98307 11.1989 5.54242 10.8261 5.17199C9.31207 3.65999 6.68707 3.65999 5.17407 5.17199L6.58607 6.58799C7.34607 5.82999 8.65607 5.83199 9.41207 6.58599Z" fill="white"/>
</svg>
