<svg width="35" height="25" viewBox="0 0 35 25" fill="none" xmlns="http://www.w3.org/2000/svg">
<path d="M17.4563 11.2329C18.2229 11.5414 18.9819 11.8734 19.7306 12.2243C21.1752 12.9005 21.9531 14.0724 22.1948 15.6262C22.2145 15.7504 22.223 15.8783 22.0895 15.9987C21.8694 15.9592 21.7503 15.8811 21.3756 16.0147C21.0009 16.1482 20.6015 16.4398 20.5291 16.9298C20.435 17.56 20.5977 18.1384 20.895 18.6877C20.9608 18.81 21.0304 18.9294 21.0991 19.0517C20.3636 19.9471 19.4108 20.3365 18.2944 20.3713C17.872 20.3844 17.445 20.3468 17.0284 20.3957C16.3869 20.471 15.88 20.8077 15.4172 21.262C14.7137 21.9523 13.9848 22.6286 12.9379 22.7668C12.5373 22.7236 12.1375 22.7866 11.7303 22.716C9.30556 22.2937 7.68312 20.1136 8.10543 17.6917C8.34903 16.2949 9.07889 15.0591 9.66767 13.7837C9.9978 13.0679 10.612 12.5619 11.0954 11.959C12.9336 10.5345 15.3083 10.3683 17.4563 11.2329Z" fill="#FDFDFD"/>
<path d="M11.0945 11.958C10.6111 12.5609 10.15 13.0178 9.66675 13.7827C8.78883 15.1721 8.07535 16.0473 8.10451 17.6906C8.14744 20.1097 9.30464 22.2937 11.7294 22.715C12.1357 22.7856 12.5354 22.7225 12.937 22.7658C12.3661 23.0621 11.7661 22.9868 11.1688 22.89C8.8184 22.5953 7.75787 20.3575 7.60038 17.8834C7.45979 15.6749 8.75066 14.2435 10.0383 12.7678C10.3308 12.432 10.6336 12.085 11.0945 11.958Z" fill="#646F8A"/>
<path d="M5.09076 4.72706C5.87705 4.12887 6.6831 4.30851 7.4694 4.70354C8.80027 5.37227 9.57716 6.96179 9.32133 8.42716C9.15391 9.38181 8.54538 10.0101 7.66221 10.1408C7.58885 10.1201 7.51548 10.0891 7.44118 10.0816C5.66449 9.90758 4.29506 8.02367 4.44366 6.30529C4.49539 5.7024 4.8227 5.23119 5.09076 4.72706Z" fill="#FDFDFD"/>
<path d="M5.09134 4.72717C4.82328 5.23131 4.49597 5.70158 4.44424 6.30541C4.29564 8.02284 5.66507 9.90676 7.44176 10.0817C7.517 10.0892 7.58943 10.1212 7.66279 10.141C7.35241 10.4165 6.98277 10.3037 6.65641 10.2406C4.81576 9.88042 3.51404 7.68801 4.09154 5.91414C4.25707 5.40248 4.47904 4.88707 5.09134 4.72717Z" fill="#646F8A"/>
<path d="M14.0164 1.14931C14.8055 0.769325 15.5034 0.997877 16.1514 1.48602C17.5857 2.56577 17.9177 4.86164 16.838 6.26869C16.4956 6.71451 16.0761 7.05405 15.4657 7.0343C13.8546 6.6308 12.9818 5.53883 12.8745 3.87124C12.804 2.76046 13.2122 1.87917 14.0164 1.14931Z" fill="#FDFDFD"/>
<path d="M14.0163 1.14929C13.2122 1.87821 12.803 2.76045 12.8745 3.87123C12.9817 5.53976 13.8546 6.63079 15.4657 7.03428C14.9583 7.13 14.8148 7.11096 14.4132 7.023C13.1546 6.74728 12.5914 5.62911 12.3817 4.42333C12.2227 3.50724 12.3544 2.60808 12.962 1.8453C13.2357 1.50388 13.5301 1.17657 14.0163 1.14929Z" fill="#646F8A"/>
<path d="M1.99221 13.1036C2.29789 12.7895 2.67975 12.7735 3.08136 12.8158C4.24764 12.9381 5.22016 14.0949 5.10259 15.2255C5.03676 15.8594 4.62574 16.2714 3.99087 16.341C2.17844 16.0315 1.4514 14.8521 1.99221 13.1036Z" fill="#FDFDFD"/>
<path d="M1.99202 13.1036C1.45121 14.8531 2.17825 16.0316 3.98974 16.3419C3.97751 16.4369 3.91167 16.4642 3.8289 16.4793C2.50744 16.7087 1.13048 15.439 1.24993 14.1016C1.2979 13.5607 1.55184 13.2212 1.99202 13.1036Z" fill="#646F8A"/>
<path d="M21.6702 5.50965C22.2815 5.17388 22.8139 5.25665 23.3189 5.76548C24.2002 6.6543 24.0347 8.42722 23.0048 9.1364C22.86 9.23609 22.7001 9.29347 22.5214 9.29065C21.5517 9.03764 21.1021 8.52598 20.9911 7.60519C20.8923 6.79538 21.1783 6.12195 21.6702 5.50965Z" fill="#FDFDFD"/>
<path d="M21.6701 5.50964C21.1782 6.12194 20.8923 6.79537 20.9901 7.60612C21.1011 8.52691 21.5506 9.03763 22.5203 9.29158C22.2231 9.57374 21.8864 9.45335 21.576 9.35177C20.9148 9.13545 20.4333 8.30588 20.4558 7.4735C20.4765 6.76433 20.8311 5.77582 21.6701 5.50964Z" fill="#646F8A"/>
<path d="M6.70711 18.6895C6.66683 17.4612 6.69868 16.8269 7.14852 15.6832C7.70837 14.2599 8.38059 13.3319 9.44692 12.2355C11.662 9.95778 14.3613 9.32824 17.3635 10.36C18.6417 10.7993 19.9425 11.2611 21.0457 12.0925C22.2854 13.0265 22.9165 14.2943 22.9701 15.8368C22.9832 16.1989 23.1083 16.4341 23.3613 16.6805C24.1213 17.4198 24.5163 18.3001 24.2774 19.3902C24.111 20.152 23.4554 20.459 22.781 20.3213C21.466 20.0528 20.9122 20.3157 20.6846 20.4652C19.6594 21.1396 18.5185 21.3493 17.3221 21.2807C16.7578 21.2478 16.3449 21.4321 15.9593 21.8337C15.077 22.7536 14.0565 23.4392 12.7623 23.6734C10.6743 24.0525 8.46217 23.105 7.33634 21.0352C6.88315 20.202 6.7382 19.6374 6.70711 18.6895ZM12.9373 22.7658C13.9832 22.6276 14.713 21.9513 15.4166 21.2609C15.8793 20.8067 16.3863 20.4699 17.0277 20.3947C17.4453 20.3458 17.8723 20.3834 18.2937 20.3702C19.4101 20.3354 20.3629 19.9461 21.0984 19.0507C21.0297 18.9293 20.9601 18.8089 20.8943 18.6867C20.5971 18.1374 20.4344 17.559 20.5284 16.9288C20.6018 16.4388 20.9123 16.0135 21.466 15.9622C21.7252 15.9381 21.8687 15.9591 22.0888 15.9976C22.2223 15.8773 22.2129 15.7493 22.1941 15.6252C21.9524 14.0724 21.1736 12.8995 19.7299 12.2232C18.9812 11.8724 18.2231 11.5404 17.4557 11.2319C15.3014 10.3657 12.9194 10.5415 11.0929 11.9571C10.632 12.084 10.0376 12.7669 10.0376 12.7669C10.0376 12.7669 7.45973 15.6739 7.59969 17.8825C7.75154 20.2787 8.79099 22.5515 11.1681 22.889C11.8538 22.9864 12.3654 23.0621 12.9373 22.7658Z" fill="#08090D"/>
<path d="M29.2866 24.867C28.9998 24.9244 28.7157 24.7862 28.4561 24.6074C27.8561 24.1945 27.2776 24.203 26.6663 24.5999C25.9722 25.0504 25.2545 24.9639 24.5896 24.5378C23.9632 24.1362 23.6791 23.5268 23.712 22.779C23.728 22.4066 23.8653 22.0755 24.1127 21.8027C24.3441 21.5488 24.5886 21.3043 24.8492 21.0804C25.3006 20.691 25.5894 20.264 25.6655 19.6235C25.8386 18.1685 27.1723 17.433 28.4119 18.0528C29.0684 18.381 29.3957 18.9689 29.4559 19.6762C29.4936 20.1163 29.6544 20.4493 29.9732 20.7362C30.2526 20.9873 30.5197 21.2525 30.7793 21.5234C31.3587 22.1282 31.575 22.8298 31.2543 23.6293C30.926 24.4447 30.2375 24.8727 29.2866 24.867Z" fill="#08090D"/>
<path d="M7.12297 11.0551C5.29078 11.057 3.47271 9.39884 3.21876 7.54127C3.11906 6.80952 3.13505 6.10035 3.41816 5.42222C4.10099 3.78661 5.97832 3.09907 7.62522 3.86185C9.40567 4.68577 10.4346 6.65057 10.0979 8.58245C9.83926 10.06 8.64477 11.0533 7.12297 11.0551ZM7.66284 10.1409C8.54601 10.0102 9.15454 9.38191 9.32196 8.42726C9.57779 6.96189 8.8009 5.37237 7.47003 4.70364C6.68373 4.30861 5.87768 4.12897 5.09139 4.72715C4.47909 4.88611 4.25712 5.40247 4.09159 5.91318C3.51409 7.68705 4.81581 9.87946 6.65645 10.2397C6.98282 10.3036 7.35246 10.4165 7.66284 10.1409Z" fill="#08090D"/>
<path d="M18.271 3.93425C18.2719 5.90375 17.401 7.30704 16.1106 7.75192C14.5869 8.27768 12.8732 7.51866 12.0719 5.93949C11.4116 4.63777 11.3072 3.3022 11.9618 1.96569C12.9475 -0.0489622 15.328 -0.449634 16.9458 1.11449C17.8384 1.97791 18.2259 3.0539 18.271 3.93425ZM14.016 1.14929C13.5288 1.17563 13.2353 1.50294 12.9616 1.8453C12.354 2.60808 12.2224 3.5063 12.3813 4.42333C12.5911 5.62911 13.0986 6.50483 14.3072 6.94406C14.6392 7.06445 15.1439 7.13 15.4654 7.03428C15.7868 6.93856 16.4962 6.7145 16.8386 6.26868C17.9174 4.86162 17.5854 2.56575 16.152 1.48601C15.503 0.998805 14.806 0.769312 14.016 1.14929Z" fill="#08090D"/>
<path d="M30.7579 18.9708C30.7964 17.5797 31.6984 16.3796 32.8365 16.0053C33.8927 15.6572 34.7806 16.3655 34.6132 17.4631C34.442 18.5889 33.873 19.4796 32.8703 20.059C32.4123 20.3233 31.9204 20.5406 31.4106 20.233C30.867 19.9057 30.755 19.3517 30.7579 18.9708Z" fill="#08090D"/>
<path d="M26.9349 13.7244C26.9349 14.3961 26.8522 14.8888 26.411 15.3628C25.953 15.8547 25.3426 15.8998 24.8225 15.4766C23.7897 14.6348 23.3891 12.7086 23.9666 11.5188C24.402 10.6224 25.4188 10.6817 25.9229 11.1849C26.6245 11.8856 26.9349 12.8942 26.9349 13.7244Z" fill="#08090D"/>
<path d="M30.0361 10.8256C30.5826 10.8228 30.9682 11.0862 31.1686 11.6251C31.5965 12.7744 31.4376 13.8692 30.7933 14.8954C30.4613 15.424 30.007 15.8359 29.3383 15.7381C28.6432 15.6375 28.3864 15.0571 28.2689 14.4599C28.046 13.3312 28.282 12.2816 28.9997 11.3721C29.264 11.0363 29.5997 10.7636 30.0361 10.8256Z" fill="#08090D"/>
<path d="M3.5007 17.3031C1.68639 17.2947 0.19092 15.5368 0.493775 13.7695C0.647084 12.8797 1.48887 12.1132 2.51219 12.0163C4.5306 11.8254 6.23298 13.7112 5.86523 15.5104C5.64514 16.5836 4.71118 17.3088 3.5007 17.3031ZM3.98978 16.3409C4.62559 16.2704 5.03567 15.8584 5.10245 15.2255C5.22002 14.0949 4.24749 12.9371 3.08122 12.8158C2.6796 12.7735 2.29774 12.7894 1.99206 13.1036C1.55095 13.2212 1.29794 13.5607 1.24997 14.1015C1.12958 15.439 2.50748 16.7087 3.82895 16.4792C3.91172 16.4642 3.97756 16.4359 3.98978 16.3409Z" fill="#08090D"/>
<path d="M24.665 7.2534C24.6424 8.29459 24.2878 9.16459 23.4197 9.80416C22.4246 10.5368 21.0373 10.3544 20.2811 9.36399C19.3462 8.1394 19.5118 6.19623 20.6564 5.16633C21.3693 4.52488 22.2177 4.33113 23.099 4.69512C24.1026 5.1099 24.5672 5.95827 24.6641 7.01921C24.6707 7.09633 24.665 7.17534 24.665 7.2534ZM21.6703 5.50963C20.8313 5.77581 20.4758 6.76526 20.457 7.47349C20.4344 8.30493 20.916 9.13449 21.5772 9.35176C21.8866 9.45334 22.2243 9.57373 22.5215 9.29157C22.7002 9.29439 22.8601 9.23701 23.0049 9.13732C24.0348 8.42814 24.2004 6.65522 23.3191 5.7664C22.814 5.25663 22.2817 5.17386 21.6703 5.50963Z" fill="#08090D"/>
</svg>
